G75*
%MOIN*%
%OFA0B0*%
%FSLAX24Y24*%
%IPPOS*%
%LPD*%
%AMOC8*
5,1,8,0,0,1.08239X$1,22.5*
%
%ADD10C,0.0000*%
%ADD11R,0.0984X0.0472*%
%ADD12R,0.0472X0.0472*%
%ADD13R,0.0630X0.0709*%
%ADD14R,0.0512X0.0591*%
%ADD15C,0.0650*%
%ADD16R,0.0591X0.0512*%
%ADD17R,0.0300X0.0300*%
%ADD18C,0.0886*%
%ADD19C,0.0160*%
%ADD20C,0.0356*%
D10*
X000180Y000180D02*
X000180Y019865D01*
X019865Y019865D01*
X019865Y000180D01*
X000180Y000180D01*
D11*
X001066Y001164D03*
X001066Y002149D03*
X001066Y003133D03*
X001066Y005101D03*
X001066Y006086D03*
X001066Y007070D03*
X003231Y007070D03*
X003231Y006086D03*
X003231Y005101D03*
X005003Y005101D03*
X005003Y006086D03*
X005003Y007070D03*
X007168Y007070D03*
X007168Y006086D03*
X007168Y005101D03*
X008940Y005101D03*
X008940Y006086D03*
X008940Y007070D03*
X011105Y007070D03*
X011105Y006086D03*
X011105Y005101D03*
X012877Y005101D03*
X012877Y006086D03*
X012877Y007070D03*
X015042Y007070D03*
X015042Y006086D03*
X015042Y005101D03*
X015042Y003133D03*
X015042Y002149D03*
X015042Y001164D03*
X016814Y001164D03*
X016814Y002149D03*
X016814Y003133D03*
X018979Y003133D03*
X018979Y002149D03*
X018979Y001164D03*
X012877Y001164D03*
X012877Y002149D03*
X012877Y003133D03*
X011105Y003133D03*
X011105Y002149D03*
X011105Y001164D03*
X008940Y001164D03*
X008940Y002149D03*
X008940Y003133D03*
X007168Y003133D03*
X007168Y002149D03*
X007168Y001164D03*
X005003Y001164D03*
X005003Y002149D03*
X005003Y003133D03*
X003231Y003133D03*
X003231Y002149D03*
X003231Y001164D03*
D12*
X002542Y010987D03*
X002542Y011814D03*
X000967Y011814D03*
X000967Y010987D03*
X004117Y010987D03*
X004117Y011814D03*
X005692Y011814D03*
X005692Y010987D03*
X007267Y010987D03*
X007267Y011814D03*
X008841Y011814D03*
X008841Y010987D03*
X010416Y010987D03*
X010416Y011814D03*
X011991Y011814D03*
X011991Y010987D03*
X013566Y010987D03*
X013566Y011814D03*
D13*
X016420Y006656D03*
X017523Y006656D03*
D14*
X017483Y007660D03*
X016735Y007660D03*
X016597Y005656D03*
X017345Y005656D03*
D15*
X018227Y010070D03*
X016259Y010070D03*
X016259Y012038D03*
X018227Y012038D03*
X019274Y014274D03*
X019274Y019274D03*
X000771Y019274D03*
X000771Y014274D03*
D16*
X000967Y010200D03*
X000967Y009452D03*
X002542Y009452D03*
X002542Y010200D03*
X004117Y010200D03*
X004117Y009452D03*
X005692Y009452D03*
X005692Y010200D03*
X007267Y010200D03*
X007267Y009452D03*
X008841Y009452D03*
X008841Y010200D03*
X010416Y010200D03*
X010416Y009452D03*
X011991Y009452D03*
X011991Y010200D03*
X013566Y010200D03*
X013566Y009452D03*
D17*
X016542Y004944D03*
X017298Y004944D03*
X016902Y004091D03*
D18*
X019274Y016125D03*
X019274Y017503D03*
X000771Y017503D03*
X000771Y016125D03*
D19*
X000771Y014274D01*
X000771Y012188D01*
X000967Y011991D01*
X000967Y011814D02*
X002542Y011814D01*
X004117Y011814D01*
X005692Y011814D01*
X007267Y011814D01*
X008841Y011814D01*
X010416Y011814D01*
X011991Y011814D01*
X013566Y011814D01*
X016034Y011814D01*
X016259Y012038D01*
X018227Y012038D01*
X018928Y012038D01*
X019274Y012385D01*
X019274Y014274D01*
X019274Y016125D01*
X013566Y010987D02*
X013566Y010200D01*
X013566Y009452D02*
X013566Y009235D01*
X013763Y009038D01*
X013763Y007660D01*
X014353Y007070D01*
X015042Y007070D01*
X015052Y006096D02*
X015042Y006086D01*
X012877Y006086D01*
X011105Y006086D01*
X008940Y006086D01*
X007168Y006086D01*
X005003Y006086D01*
X003231Y006086D01*
X001066Y006086D01*
X002149Y006873D02*
X002149Y008271D01*
X002129Y008271D01*
X001755Y008645D01*
X001361Y008645D01*
X000967Y009038D01*
X000967Y009452D01*
X000967Y010200D02*
X000967Y010987D01*
X002542Y010987D02*
X002542Y010200D01*
X002542Y009452D02*
X002542Y009235D01*
X002936Y008841D01*
X003723Y008841D01*
X004117Y008448D01*
X004117Y006873D01*
X003231Y007070D02*
X003231Y007562D01*
X003526Y007857D01*
X004117Y009235D02*
X004117Y009452D01*
X004117Y009235D02*
X005298Y008054D01*
X007660Y008054D01*
X008054Y007660D01*
X008054Y006873D01*
X007267Y007463D02*
X007168Y007365D01*
X007168Y007070D01*
X008448Y008054D02*
X008054Y008448D01*
X006282Y008448D01*
X005692Y009038D01*
X005692Y009452D01*
X005692Y010200D02*
X005692Y010987D01*
X007267Y010987D02*
X007267Y010200D01*
X007267Y009452D02*
X007267Y009038D01*
X007463Y008841D01*
X007286Y009432D02*
X007267Y009452D01*
X008448Y008054D02*
X011597Y008054D01*
X011991Y007660D01*
X011991Y006873D01*
X011400Y007070D02*
X011105Y007070D01*
X011400Y007070D02*
X011400Y007660D01*
X011991Y008251D02*
X011991Y009452D01*
X011991Y010200D02*
X011991Y010987D01*
X011991Y011050D01*
X010416Y010987D02*
X010416Y010200D01*
X010416Y009452D02*
X010416Y008645D01*
X010613Y008448D01*
X009235Y008448D02*
X008841Y008841D01*
X008841Y009452D01*
X008841Y010200D02*
X008841Y010987D01*
X004117Y010987D02*
X004117Y010200D01*
X004117Y005298D02*
X004117Y004904D01*
X004511Y004511D01*
X005692Y004511D01*
X006086Y004117D01*
X006086Y003330D01*
X006282Y003133D01*
X007168Y003133D01*
X007168Y002149D02*
X008940Y002149D01*
X011105Y002149D01*
X012877Y002149D01*
X015042Y002149D01*
X015337Y002149D01*
X015928Y002739D01*
X015928Y003920D01*
X016135Y004127D01*
X016866Y004127D01*
X016902Y004091D01*
X016542Y004944D02*
X016542Y005601D01*
X016597Y005656D01*
X016597Y006282D01*
X016420Y006656D01*
X016420Y006774D01*
X016125Y007070D01*
X016125Y007463D01*
X016735Y007660D02*
X016735Y009593D01*
X016259Y010070D01*
X018227Y010070D01*
X017483Y007660D02*
X017483Y006696D01*
X017523Y006656D01*
X017345Y006479D01*
X017345Y005656D01*
X017298Y005609D01*
X017298Y004944D01*
X015928Y005505D02*
X015928Y003920D01*
X015042Y003133D02*
X014156Y003133D01*
X013960Y003330D01*
X013960Y003723D01*
X013566Y004117D01*
X012385Y004117D01*
X011991Y004511D01*
X011991Y005298D01*
X010416Y003723D02*
X010023Y004117D01*
X008448Y004117D01*
X008054Y004511D01*
X008054Y005298D01*
X010416Y003723D02*
X010416Y003330D01*
X010613Y003133D01*
X011105Y003133D01*
X007168Y002149D02*
X005003Y002149D01*
X003231Y002149D01*
X001066Y002149D01*
X002149Y003330D02*
X002149Y005298D01*
X002149Y003330D02*
X002345Y003133D01*
X003231Y003133D01*
X015042Y002149D02*
X016814Y002149D01*
X018979Y002149D01*
X018979Y003133D02*
X018979Y004412D01*
X018881Y004511D01*
X015928Y005505D02*
X015337Y006096D01*
X015052Y006096D01*
D20*
X016125Y007463D03*
X018881Y004511D03*
X011991Y005298D03*
X011991Y006873D03*
X011400Y007660D03*
X011991Y008251D03*
X010613Y008448D03*
X009235Y008448D03*
X008054Y006873D03*
X007267Y007463D03*
X007463Y008841D03*
X008054Y005298D03*
X004117Y005298D03*
X004117Y006873D03*
X003526Y007857D03*
X002149Y006873D03*
X002149Y005298D03*
M02*
