%
M48
M72
T01C0.0236
T02C0.0433
T03C0.0591
%
T01
X2149Y5298
X2149Y6873
X3526Y7857
X4117Y6873
X4117Y5298
X7267Y7463
X8054Y6873
X9235Y8448
X10613Y8448
X11400Y7660
X11991Y8251
X11991Y6873
X11991Y5298
X8054Y5298
X7463Y8841
X16125Y7463
X18881Y4511
T02
X771Y14274
X771Y19274
X16259Y12038
X16259Y10070
X18227Y10070
X18227Y12038
X19274Y14274
X19274Y19274
T03
X771Y17503
X771Y16125
X19274Y16125
X19274Y17503
M30
